<?xml version="1.0" encoding="utf-8"?>
<!DOCTYPE svg PUBLIC "-//W3C//DTD SVG 1.1//EN" "http://www.w3.org/Graphics/SVG/1.1/DTD/svg11.dtd">
<svg version="1.1"
    xmlns="http://www.w3.org/2000/svg"
    xmlns:xlink="http://www.w3.org/1999/xlink" x="0px" y="0px" viewBox="0 0 1000 1000" enable-background="new 0 0 1000 1000" xml:space="preserve">
    <g>
        <g transform="translate(0.000000,511.000000) scale(0.100000,-0.100000)">
            <path d="M2457.5,3029.5c-205.6-47.4-344-126.5-490.3-280.8C1781.3,2555,207.5-189.2,148.2-426.5c-158.2-605,83-1387.9,577.3-1882.2c233.3-229.3,296.6-268.9,581.3-363.8c585.2-189.8,1601.5-213.5,2170.9-51.4c684.1,201.7,1111.1,980.6,1079.5,1981l-11.9,431l134.4,90.9c181.9,122.6,458.7,122.6,640.6,0l134.5-90.9l-11.9-431c-27.7-996.5,399.4-1779.4,1079.5-1981c557.5-158.2,1573.8-138.4,2159,47.5c296.6,94.9,355.9,130.5,593.1,367.7c494.3,498.2,735.5,1277.2,577.3,1882.2C9792.5-193.2,8218.7,2551,8032.9,2752.7c-371.7,395.4-1012.3,391.5-1364.2-11.9c-221.5-249.1-272.9-632.7-106.8-794.8c185.8-189.8,462.6-75.1,510.1,213.5c11.8,87,51.4,185.8,87,217.5c94.9,94.9,304.5,79.1,415.2-31.6c94.9-94.9,1119.1-1838.7,1095.3-1862.4c-7.9-7.9-138.4,0-288.7,19.8c-431,55.4-1237.7,47.5-1625.2-19.8c-209.6-35.6-466.6-114.7-632.7-193.8l-280.7-130.5L5692,273.4c-174,126.5-478.5,229.3-692,229.3c-213.5,0-506.1-98.9-692-233.3l-162.1-114.7l-272.8,134.4c-174,83-407.3,154.2-628.7,193.8c-387.5,67.2-1198.1,75.1-1625.2,19.8c-150.3-19.8-280.8-27.7-288.7-19.8c-23.7,23.7,1000.4,1763.6,1095.3,1862.4c110.8,110.7,320.3,126.5,415.2,31.6c35.6-31.6,75.1-130.5,87-217.5c47.5-288.7,324.3-403.3,510.1-213.5c114.6,114.7,126.5,284.7,39.5,537.8C3335.3,2887.1,2884.5,3128.4,2457.5,3029.5z M2975.4-90.4c842.2-106.8,1075.5-371.7,960.9-1075.5c-87-529.8-332.1-881.8-684.1-988.5c-110.7-31.6-399.4-51.4-802.7-51.4c-782.9,0-1004.4,55.4-1285.1,320.3c-280.8,261-411.2,573.4-427,1028.1c-15.8,355.9-15.8,359.8,110.7,482.4c71.2,75.1,209.6,150.3,328.2,185.8C1611.2-66.6,2417.9-23.1,2975.4-90.4z M8234.5-90.4c522-59.3,767.1-134.4,917.4-284.7c126.5-122.6,126.5-126.5,110.7-482.4c-15.8-419.2-122.6-696-371.7-972.8c-185.8-209.6-375.6-292.6-779-355.9c-344-55.4-1142.8-31.6-1384,39.5c-332.2,98.8-581.3,462.6-664.3,972.8c-55.3,355.9-19.8,612.9,106.8,763.2C6415.6-118.1,7265.8,12.5,8234.5-90.4z"/>
        </g>
    </g>
</svg>